<svg version="1.0" xmlns="http://www.w3.org/2000/svg" width="933.333" height="933.333" viewBox="0 0 700 700"><path d="M286.3 63.6c-34.8 34.9-63.3 63.7-63.3 64.2 0 .4 7.9 8.6 17.5 18.2l17.4 17.4 46.1-46.1 46-46 46.1 46 46 46.1 17.5-17.5c9.6-9.5 17.4-17.7 17.4-18.1C477 127 350.3-.1 349.7.1c-.1 0-28.7 28.6-63.4 63.5zM239.8 181.7 222 199.5l46 46 46 45.9 17.5-17.4c9.6-9.6 17.5-17.9 17.5-18.4 0-.8-90.3-91.6-91.2-91.6-.2 0-8.3 8-18 17.7zM395.6 209.9l-45.8 45.8 17.6 17.7c9.6 9.7 17.8 17.6 18.2 17.6.9 0 91.4-90.7 91.4-91.7 0-.9-34.1-35.3-35-35.3-.3 0-21.1 20.6-46.4 45.9zM181.6 239.6c-9.7 9.6-17.6 17.9-17.6 18.2 0 .4 20.6 21.3 45.8 46.4l45.8 45.8 17.9-18 17.9-17.9-46.1-46-46-46.1-17.7 17.6zM454.5 268l-46 46 17.5 17.5c9.6 9.6 17.8 17.5 18.3 17.5 1 0 92-91 91.6-91.5-.9-1-26.3-26.5-30.6-30.7l-4.8-4.7-46 45.9zM554.4 240.1l-17.8 17.8 46.1 46.1 46.1 46-46.1 46.1-46.1 46 17.4 17.4c9.6 9.6 17.8 17.5 18.2 17.5.5 0 29.4-28.6 64.3-63.5L700 350l-63.9-63.9-63.9-63.9-17.8 17.9zM63.8 286.1C29.2 320.7 1 349.4 1 350c0 .6 28.5 29.5 63.4 64.4l63.4 63.4 17.8-17.9 17.8-17.8-46-46.1-46.1-46 46.1-46 46-46.1-17.4-17.4c-9.6-9.6-17.9-17.5-18.5-17.4-.5 0-29.2 28.4-63.7 63zM426.3 367.6c-9.5 9.5-17.3 17.6-17.3 18 0 .9 90.8 91.4 91.7 91.4.5 0 8.7-7.9 18.3-17.5l17.5-17.5-46-46c-25.3-25.3-46.2-46-46.5-45.9-.3 0-8.3 7.9-17.7 17.5zM209.1 396.7l-45.4 45.5 17.9 17.9 17.9 17.9 45.7-45.7c25.2-25.2 45.7-46.1 45.5-46.6-.5-1.6-34-34.7-35.1-34.6-.6 0-21.5 20.5-46.5 45.6zM267.8 454.9l-45.7 45.8 17.6 17.7c9.7 9.7 17.9 17.6 18.2 17.6.3 0 21.2-20.6 46.4-45.8l45.7-45.7-17.8-17.8c-9.7-9.7-17.9-17.7-18.2-17.6-.3 0-21.1 20.6-46.2 45.8zM368.5 426c-9.3 9.3-17.1 17.4-17.3 17.9-.2.5 20.2 21.5 45.4 46.7l45.6 45.6 17.9-17.8 17.9-17.9-45.7-45.7c-25.2-25.2-46-45.8-46.3-45.8-.3 0-8.2 7.6-17.5 17zM240.2 554.3c-9.4 9.5-17.2 17.6-17.2 18 0 .4 28.6 29.3 63.5 64.2L350 700l63.5-63.5c34.9-34.9 63.5-63.8 63.5-64.3 0-.4-7.9-8.6-17.4-18.1l-17.5-17.5-46 46.1-46.1 46-45.7-45.8c-25.2-25.2-46-45.9-46.3-45.9-.3 0-8.3 7.8-17.8 17.3z"/></svg>