<?xml version="1.0" standalone="no"?>
<!DOCTYPE svg PUBLIC "-//W3C//DTD SVG 20010904//EN"
 "http://www.w3.org/TR/2001/REC-SVG-20010904/DTD/svg10.dtd">
<svg version="1.0" xmlns="http://www.w3.org/2000/svg"
 width="700.000000pt" height="700.000000pt" viewBox="0 0 700.000000 700.000000"
 preserveAspectRatio="xMidYMid meet">
<metadata>
Created by potrace 1.14, written by Peter Selinger 2001-2017
</metadata>
<g transform="translate(0.000000,700.000000) scale(0.100000,-0.100000)"
fill="#000000" stroke="none">
<path d="M2863 6364 c-348 -349 -633 -637 -633 -642 0 -4 79 -86 175 -182
l174 -174 461 461 460 460 461 -460 460 -461 175 175 c96 95 174 177 174 181
0 8 -1267 1279 -1273 1277 -1 0 -287 -286 -634 -635z"/>
<path d="M2398 5183 l-178 -178 460 -460 460 -459 175 174 c96 96 175 179 175
184 0 8 -903 916 -912 916 -2 0 -83 -80 -180 -177z"/>
<path d="M3956 4901 l-458 -458 176 -177 c96 -97 178 -176 182 -176 9 0 914
907 914 917 0 9 -341 353 -350 353 -3 0 -211 -206 -464 -459z"/>
<path d="M1816 4604 c-97 -96 -176 -179 -176 -182 0 -4 206 -213 458 -464
l458 -458 179 180 179 179 -461 460 -460 461 -177 -176z"/>
<path d="M4545 4320 l-460 -460 175 -175 c96 -96 178 -175 183 -175 10 0 920
910 916 915 -9 10 -263 265 -306 307 l-48 47 -460 -459z"/>
<path d="M5544 4599 l-178 -178 461 -461 461 -460 -461 -461 -461 -460 174
-174 c96 -96 178 -175 182 -175 5 0 294 286 643 635 l635 635 -639 639 -639
639 -178 -179z"/>
<path d="M638 4139 c-346 -346 -628 -633 -628 -639 0 -6 285 -295 634 -644
l634 -634 178 179 178 178 -460 461 -461 460 461 460 460 461 -174 174 c-96
96 -179 175 -185 174 -5 0 -292 -284 -637 -630z"/>
<path d="M4263 3324 c-95 -95 -173 -176 -173 -180 0 -9 908 -914 917 -914 5 0
87 79 183 175 l175 175 -460 460 c-253 253 -462 460 -465 459 -3 0 -83 -79
-177 -175z"/>
<path d="M2091 3033 l-454 -455 179 -179 179 -179 457 457 c252 252 457 461
455 466 -5 16 -340 347 -351 346 -6 0 -215 -205 -465 -456z"/>
<path d="M2678 2451 l-457 -458 176 -177 c97 -97 179 -176 182 -176 3 0 212
206 464 458 l457 457 -178 178 c-97 97 -179 177 -182 176 -3 0 -211 -206 -462
-458z"/>
<path d="M3685 2740 c-93 -93 -171 -174 -173 -179 -2 -5 202 -215 454 -467
l456 -456 179 178 179 179 -457 457 c-252 252 -460 458 -463 458 -3 0 -82 -76
-175 -170z"/>
<path d="M2402 1457 c-94 -95 -172 -176 -172 -180 0 -4 286 -293 635 -642
l635 -635 635 635 c349 349 635 638 635 643 0 4 -79 86 -174 181 l-175 175
-460 -461 -461 -460 -457 458 c-252 252 -460 459 -463 459 -3 0 -83 -78 -178
-173z"/>
</g>
</svg>
