<svg xmlns="http://www.w3.org/2000/svg" xmlns:xlink="http://www.w3.org/1999/xlink"><defs><clipPath id="a"><path d="M0 0h22v22H0z"/></clipPath></defs><symbol id="fb"><path d="M15 .004 12.405 0C9.492 0 7.609 1.932 7.609 4.922v2.27H5.001a.408.408 0 0 0-.407.407v3.288c0 .226.182.408.407.408H7.61v8.297c0 .226.183.408.408.408h3.402a.408.408 0 0 0 .408-.408v-8.297h3.049a.408.408 0 0 0 .408-.408l.001-3.288a.409.409 0 0 0-.408-.408h-3.05V5.268c0-.925.22-1.394 1.425-1.394l1.747-.001a.408.408 0 0 0 .407-.408V.412A.408.408 0 0 0 15 .004Z"/></symbol><symbol id="instagram"><g clip-path="url(#a)"><path d="M15.125 0h-8.25A6.876 6.876 0 0 0 0 6.875v8.25A6.876 6.876 0 0 0 6.875 22h8.25A6.876 6.876 0 0 0 22 15.125v-8.25A6.876 6.876 0 0 0 15.125 0Zm4.813 15.125a4.818 4.818 0 0 1-4.813 4.813h-8.25a4.818 4.818 0 0 1-4.813-4.813v-8.25a4.818 4.818 0 0 1 4.813-4.813h8.25a4.818 4.818 0 0 1 4.813 4.813v8.25Z"/><path d="M11 5.5a5.5 5.5 0 1 0 0 11 5.5 5.5 0 0 0 0-11Zm0 8.938A3.442 3.442 0 0 1 7.562 11 3.441 3.441 0 0 1 11 7.562 3.441 3.441 0 0 1 14.438 11 3.442 3.442 0 0 1 11 14.438ZM16.913 5.82a.733.733 0 1 0 0-1.465.733.733 0 0 0 0 1.465Z"/></g></symbol><symbol id="vk"><path d="M27.895 13.547a1.776 1.776 0 0 0-.095-.171c-.487-.822-1.417-1.83-2.79-3.026l-.028-.027-.015-.014-.014-.013h-.015c-.623-.557-1.017-.931-1.183-1.123-.302-.365-.37-.735-.204-1.109.116-.283.555-.88 1.314-1.793.399-.484.715-.871.949-1.163 1.684-2.1 2.414-3.44 2.19-4.025l-.087-.136c-.059-.082-.21-.158-.452-.226-.244-.069-.555-.08-.935-.034l-4.205.027a.58.58 0 0 0-.292.007l-.19.041-.073.034-.058.041a.635.635 0 0 0-.161.144.925.925 0 0 0-.146.24 21.77 21.77 0 0 1-1.562 3.08c-.36.565-.691 1.056-.993 1.471-.302.415-.555.72-.76.917-.204.196-.389.353-.554.472-.166.119-.292.17-.38.15l-.248-.054a.936.936 0 0 1-.329-.335 1.433 1.433 0 0 1-.168-.534 5.54 5.54 0 0 1-.05-.555 10.89 10.89 0 0 1 .007-.657c.01-.283.014-.474.014-.575 0-.347.008-.723.022-1.129l.037-.965c.01-.237.014-.488.014-.753s-.017-.472-.05-.623a2.034 2.034 0 0 0-.154-.438.753.753 0 0 0-.3-.328 1.752 1.752 0 0 0-.488-.185C14.947.07 14.29.01 13.492.002c-1.811-.018-2.974.091-3.49.329-.205.1-.39.237-.555.41-.175.2-.2.31-.073.329.584.082.997.278 1.24.588l.089.164c.068.12.136.33.204.63.068.301.112.634.131 1a9.988 9.988 0 0 1 0 1.71c-.048.475-.094.844-.138 1.11-.044.264-.11.478-.197.642a2.676 2.676 0 0 1-.176.301.244.244 0 0 1-.073.069 1.158 1.158 0 0 1-.394.069c-.136 0-.302-.064-.496-.192a3.429 3.429 0 0 1-.606-.527 7.07 7.07 0 0 1-.708-.938 16.059 16.059 0 0 1-.818-1.423l-.234-.398A33.34 33.34 0 0 1 6.6 2.76c-.253-.488-.477-.96-.672-1.417a.91.91 0 0 0-.35-.438L5.505.864A1.022 1.022 0 0 0 5.27.748a1.63 1.63 0 0 0-.336-.09l-4 .028c-.41 0-.687.087-.833.26l-.058.082a.42.42 0 0 0-.044.22c0 .1.03.223.088.369A44.004 44.004 0 0 0 1.993 5.34c.686 1.196 1.283 2.158 1.789 2.888s1.022 1.42 1.547 2.067c.526.648.874 1.063 1.044 1.246.17.182.304.32.402.41l.365.329c.234.219.577.481 1.03.787.452.306.953.607 1.503.904.55.296 1.19.538 1.92.725.73.187 1.44.262 2.132.226h1.68c.34-.028.598-.128.773-.301l.058-.069a.88.88 0 0 0 .11-.253 1.31 1.31 0 0 0 .05-.376c-.01-.393.023-.746.095-1.061.073-.315.156-.552.249-.712.093-.16.197-.294.314-.403.116-.11.2-.176.248-.199.049-.023.088-.039.117-.048.233-.073.508-.002.825.213.316.214.613.479.89.793.278.315.611.669 1 1.061.39.393.73.684 1.023.876l.292.165c.195.11.448.21.76.3.31.092.583.115.817.07l3.738-.055c.37 0 .657-.058.86-.172.205-.114.327-.24.366-.376a.997.997 0 0 0 .007-.466 1.633 1.633 0 0 0-.102-.362Z"/></symbol><symbol id="youtube"><path d="M17.43 0H4.57C2.045 0 0 1.971 0 4.402v6.196C0 13.027 2.046 15 4.57 15h12.86c2.524 0 4.57-1.971 4.57-4.402V4.402C22 1.972 19.954 0 17.43 0Zm-3.09 7.801-6.015 2.765c-.16.074-.346-.039-.346-.21V4.654c0-.174.19-.286.351-.208l6.016 2.938a.229.229 0 0 1-.005.417Z"/></symbol></svg>